
<svg width="20" height="25" viewBox="0 0 20 25" fill="none" xmlns="http://www.w3.org/2000/svg">
<path d="M1.37172 18.1343H11.7855C12.0688 18.1343 12.2411 17.8221 12.0901 17.5823L1.6763 1.05475C1.48385 0.749321 1.01172 0.885658 1.01172 1.24666V17.7743C1.01172 17.9731 1.1729 18.1343 1.37172 18.1343Z" fill="#FFBBE4" stroke="#FFBBE4" stroke-width="0.72"/>
<path d="M19.4434 18.0304L19.4261 13.7186C19.426 13.7035 19.4084 13.6952 19.3967 13.7048L14.0584 18.0775C14.0453 18.0882 14.0528 18.1094 14.0697 18.1094L19.3533 18.1208C19.4032 18.1209 19.4436 18.0803 19.4434 18.0304Z" fill="#FF8AA1" stroke="#FF8AA1" stroke-width="0.72"/>
<path d="M3.70217 0.815802C3.6668 0.815802 3.64525 0.854734 3.66404 0.884703L13.3302 16.3044C13.3589 16.3501 13.4211 16.3605 13.463 16.3266L19.3651 11.5612C19.4074 11.527 19.432 11.4755 19.432 11.4211L19.432 1.7158C19.432 1.21874 19.0291 0.815797 18.532 0.815797L3.70217 0.815802Z" fill="#5A7BBB" stroke="#5A7BBB" stroke-width="0.72"/>
<rect x="1" y="19.8145" width="18.4324" height="4.18559" rx="0.36" fill="#484843" stroke="#484843" stroke-width="0.72"/>
</svg>
